<?xml version="1.0" encoding="utf-8"?>
<!-- Generator: Adobe Illustrator 28.2.0, SVG Export Plug-In . SVG Version: 6.00 Build 0)  -->
<svg version="1.1" id="Layer_1" xmlns="http://www.w3.org/2000/svg" xmlns:xlink="http://www.w3.org/1999/xlink" x="0px" y="0px"
	 viewBox="0 0 1299.33 310.47" style="enable-background:new 0 0 1299.33 310.47;" xml:space="preserve">
<style type="text/css">
	.st0{fill:#F7C028;}
	.st1{opacity:0.31;fill:#F7C028;}
	.st2{fill:#FFFFFF;}
</style>
<g>
	<path class="st0" d="M270.16,71.21c0,39.33-31.88,71.21-71.21,71.21c-18.49,0-35.35-7.05-48-18.63l29.21-31.02
		c0.46-0.47,1.1-0.74,1.77-0.74c3.43,0.06,11.66,0.03,13.81-1.49c0,0,4.19-0.46,35.74-38.63c0.1-0.13,0.11-0.32,0-0.46l-1.03-1.41
		c-0.14-0.18-0.4-0.21-0.57-0.06l-26.05,24.76c-0.36,0.35-0.89,0.47-1.37,0.29c-0.34-0.14-0.67-0.4-0.82-0.94
		c-0.13-0.46,0.01-0.94,0.34-1.27l24.91-26.19c0.14-0.14,0.13-0.38-0.01-0.53l-0.91-0.89c-0.14-0.15-0.38-0.15-0.53-0.01
		l-25.91,25.06c-0.21,0.18-0.46,0.32-0.73,0.35c-0.42,0.03-0.73-0.04-0.96-0.17c-0.03,0-0.04-0.01-0.06-0.03
		c-0.03-0.01-0.06-0.03-0.08-0.04c-0.01-0.01-0.04-0.03-0.06-0.06c-0.01-0.01-0.04-0.03-0.06-0.04c-0.03-0.01-0.04-0.03-0.06-0.06
		c-0.03-0.01-0.04-0.03-0.06-0.06c-0.01-0.01-0.03-0.03-0.04-0.06c-0.03-0.01-0.04-0.04-0.06-0.06c-0.01-0.03-0.03-0.06-0.04-0.08
		c-0.01-0.01-0.03-0.03-0.03-0.06c-0.13-0.24-0.2-0.54-0.17-0.96c0.04-0.27,0.17-0.52,0.35-0.71l25.06-25.93
		c0.14-0.15,0.14-0.39-0.01-0.53l-0.89-0.91c-0.15-0.14-0.39-0.15-0.53-0.01l-26.19,24.92c-0.34,0.31-0.81,0.45-1.27,0.32
		c-0.53-0.15-0.8-0.49-0.94-0.82c-0.18-0.47-0.06-1.01,0.29-1.37l24.76-26.05c0.15-0.17-1.47-1.61-1.47-1.61
		c-0.14-0.11-0.34-0.1-0.46,0.01c-38.17,31.54-38.63,35.73-38.63,35.73c-1.52,2.15-1.55,10.35-1.49,13.79
		c0.01,0.67-0.27,1.3-0.74,1.76l-26.63,25.08l-4.23,3.99l-3.39,3.18l-0.06,0.06c-2.05,2.22-4.27,4.31-6.62,6.24l-0.08,0.07
		c-12.3,10.16-28.09,16.27-45.29,16.27c-39.33,0-71.21-31.88-71.21-71.21C17.45,31.88,49.32,0,88.65,0
		c18.65,0,35.63,7.18,48.32,18.9L102.92,57.4c-0.43,0.49-1.09,0.7-1.72,0.54c-3.42-0.81-14.6-2.81-22.77,3.39
		c-9.73,7.4-28.5,32.55-16.04,44.5c12.72,11.67,36.62-8.66,43.38-18.85c5.67-8.53,3.06-19.48,2.07-22.81
		c-0.18-0.61-0.01-1.28,0.43-1.73l33.5-33.68c0.67-0.88,1.34-1.75,2.04-2.6c3.64-4.45,7.8-8.46,12.41-11.92
		C168.13,5.31,182.93,0,198.95,0C238.29,0,270.16,31.88,270.16,71.21z"/>
	<path class="st0" d="M144.79,27.41l-2.29,2.29c0.67-0.88,1.34-1.75,2.04-2.6C144.62,27.2,144.71,27.3,144.79,27.41z"/>
	<path class="st0" d="M144.79,27.41l-2.29,2.29c0.67-0.88,1.34-1.75,2.04-2.6C144.62,27.2,144.71,27.3,144.79,27.41z"/>
	<path class="st0" d="M188.94,250.46c3.82,3.01,16.56,13.83,18.11,31.01c0.25,2.8,1.84,20.44-8.84,26.74
		c-4.21,2.49-10.58,3.35-15.33,0.36c-6.27-3.96-6.99-12.91-5.69-18.53c1.53-6.64,5.7-7.9,9.26-14.26
		C189.12,270.97,191.51,263.16,188.94,250.46z"/>
	<path class="st1" d="M248.54,185.24c7.19,2.05,33.36,10.44,48.06,36.35c2.78,4.9,21.58,38.04,4.28,58.88
		c-11.46,13.8-35.43,18.21-46.7,9.21c-10.56-8.44-3.55-23.54-12.48-48.84c-5.87-16.65-15.37-28.41-22.03-35.44l14.9-21.95
		L248.54,185.24z"/>
	<path class="st2" d="M242.85,189.37l-8.23,5.56c4.93,2.25,14.51,7.42,22.04,15.96c8.75,9.92,12.16,20.23,13.55,25.67
		c0.42-4.28,1.04-16.43-6.33-28.88C258.08,197.87,246.72,191.55,242.85,189.37z"/>
	<path class="st0" d="M0,167.75c22.28,11.69,69.34,37.64,131.51,36.65c74.36-1.19,127.11-37.97,147.97-51.98
		c-10.79,14.46-44.36,55.4-103.38,70.58c-42.81,11.02-77.65,2.98-86.63,0.71C39.99,211.2,10.49,180.02,0,167.75z"/>
</g>
<g>
	<path class="st0" d="M406.34,58.46v19.21h-31.62v99.45h-23.8V77.67H319.3V58.46H406.34z"/>
	<path class="st0" d="M423.25,104.36c3.8-7.37,8.95-13.03,15.47-17c6.52-3.97,13.8-5.95,21.85-5.95c7.03,0,13.17,1.42,18.44,4.25
		c5.27,2.83,9.49,6.4,12.67,10.71V82.94h23.97v94.18h-23.97v-13.77c-3.06,4.42-7.28,8.07-12.67,10.96
		c-5.38,2.89-11.59,4.33-18.61,4.33c-7.93,0-15.16-2.04-21.68-6.12c-6.52-4.08-11.67-9.83-15.47-17.26
		c-3.8-7.42-5.7-15.95-5.7-25.58C417.56,120.17,419.45,111.73,423.25,104.36z M488.28,115.16c-2.27-4.14-5.33-7.31-9.18-9.52
		c-3.85-2.21-7.99-3.31-12.41-3.31c-4.42,0-8.5,1.08-12.24,3.23c-3.74,2.15-6.77,5.3-9.1,9.44c-2.32,4.14-3.48,9.04-3.48,14.7
		c0,5.67,1.16,10.62,3.48,14.88c2.32,4.25,5.38,7.51,9.18,9.78c3.8,2.27,7.85,3.4,12.16,3.4c4.42,0,8.56-1.1,12.41-3.31
		c3.85-2.21,6.91-5.38,9.18-9.52c2.27-4.14,3.4-9.1,3.4-14.88C491.68,124.25,490.54,119.29,488.28,115.16z"/>
	<path class="st0" d="M554.24,174.49c-6.12-2.78-10.96-6.54-14.53-11.3c-3.57-4.76-5.52-10.03-5.87-15.81h23.97
		c0.45,3.63,2.24,6.63,5.35,9.01c3.12,2.38,7,3.57,11.65,3.57c4.53,0,8.07-0.91,10.62-2.72c2.55-1.81,3.82-4.14,3.82-6.97
		c0-3.06-1.56-5.35-4.67-6.89c-3.12-1.53-8.08-3.2-14.88-5.01c-7.03-1.7-12.78-3.46-17.25-5.27c-4.48-1.81-8.33-4.59-11.56-8.33
		c-3.23-3.74-4.85-8.78-4.85-15.13c0-5.21,1.5-9.97,4.51-14.28c3-4.31,7.31-7.71,12.92-10.2c5.61-2.49,12.21-3.74,19.8-3.74
		c11.22,0,20.17,2.81,26.86,8.42c6.69,5.61,10.37,13.17,11.05,22.69h-22.78c-0.34-3.74-1.9-6.71-4.68-8.92
		c-2.78-2.21-6.49-3.31-11.13-3.31c-4.31,0-7.62,0.79-9.95,2.38c-2.32,1.59-3.48,3.8-3.48,6.63c0,3.17,1.59,5.58,4.76,7.23
		c3.17,1.64,8.1,3.31,14.79,5.02c6.8,1.7,12.41,3.46,16.83,5.27c4.42,1.81,8.25,4.62,11.47,8.42c3.23,3.8,4.9,8.81,5.02,15.04
		c0,5.44-1.5,10.31-4.5,14.62c-3,4.31-7.31,7.68-12.92,10.12s-12.15,3.65-19.63,3.65C567.27,178.65,560.36,177.26,554.24,174.49z"/>
	<path class="st0" d="M659.3,102.49v45.56c0,3.17,0.76,5.47,2.29,6.88c1.53,1.42,4.11,2.12,7.73,2.12h11.05v20.06h-14.96
		c-20.06,0-30.09-9.75-30.09-29.24v-45.39h-11.22V82.94h11.22V59.65h23.97v23.29h21.08v19.55H659.3z"/>
	<path class="st0" d="M784.41,137.17h-68.85c0.57,6.8,2.95,12.13,7.14,15.98c4.19,3.85,9.35,5.78,15.47,5.78
		c8.84,0,15.13-3.8,18.87-11.39h25.67c-2.72,9.07-7.93,16.52-15.64,22.36c-7.71,5.84-17.17,8.75-28.39,8.75
		c-9.07,0-17.2-2.01-24.4-6.03c-7.2-4.02-12.81-9.72-16.83-17.08c-4.02-7.37-6.03-15.87-6.03-25.5c0-9.75,1.98-18.3,5.95-25.67
		c3.97-7.37,9.52-13.03,16.66-17c7.14-3.97,15.36-5.95,24.65-5.95c8.95,0,16.97,1.93,24.05,5.78c7.08,3.85,12.58,9.32,16.49,16.41
		c3.91,7.08,5.87,15.21,5.87,24.4C785.09,131.39,784.87,134.45,784.41,137.17z M760.44,121.19c-0.11-6.12-2.32-11.02-6.63-14.7
		c-4.31-3.68-9.58-5.53-15.81-5.53c-5.89,0-10.85,1.79-14.88,5.35c-4.02,3.57-6.49,8.53-7.4,14.88H760.44z"/>
	<path class="st0" d="M879.36,85.66c5.38-2.83,11.53-4.25,18.44-4.25c8.05,0,15.33,1.98,21.85,5.95c6.52,3.97,11.67,9.6,15.47,16.91
		c3.8,7.31,5.7,15.78,5.7,25.42c0,9.63-1.9,18.16-5.7,25.58c-3.8,7.42-8.95,13.18-15.47,17.26c-6.52,4.08-13.8,6.12-21.85,6.12
		c-7.03,0-13.17-1.39-18.44-4.16c-5.27-2.78-9.49-6.38-12.67-10.79v13.43h-23.8V51.32h23.8v45.39
		C869.75,92.18,873.97,88.49,879.36,85.66z M913.02,114.99c-2.32-4.14-5.38-7.28-9.18-9.44c-3.8-2.15-7.91-3.23-12.33-3.23
		c-4.31,0-8.36,1.1-12.15,3.31c-3.8,2.21-6.86,5.41-9.18,9.6c-2.32,4.19-3.48,9.12-3.48,14.79c0,5.67,1.16,10.6,3.48,14.79
		c2.32,4.19,5.38,7.4,9.18,9.6c3.8,2.21,7.85,3.31,12.15,3.31c4.42,0,8.53-1.13,12.33-3.4c3.8-2.27,6.86-5.5,9.18-9.69
		c2.32-4.19,3.48-9.18,3.48-14.96C916.5,124.03,915.34,119.12,913.02,114.99z"/>
	<path class="st0" d="M975.49,172.62c-7.25-4.02-12.95-9.72-17.08-17.08c-4.14-7.37-6.21-15.87-6.21-25.5
		c0-9.63,2.12-18.13,6.38-25.5c4.25-7.37,10.06-13.06,17.42-17.08c7.37-4.02,15.58-6.04,24.65-6.04c9.07,0,17.28,2.01,24.65,6.04
		c7.37,4.02,13.17,9.72,17.42,17.08c4.25,7.37,6.38,15.87,6.38,25.5c0,9.63-2.18,18.13-6.54,25.5
		c-4.36,7.37-10.26,13.06-17.68,17.08c-7.42,4.02-15.72,6.03-24.91,6.03C990.9,178.65,982.74,176.64,975.49,172.62z M1012.13,154.77
		c3.8-2.1,6.83-5.24,9.09-9.44c2.27-4.19,3.4-9.29,3.4-15.3c0-8.95-2.35-15.84-7.06-20.66c-4.7-4.82-10.45-7.23-17.25-7.23
		c-6.8,0-12.5,2.41-17.08,7.23c-4.59,4.82-6.88,11.7-6.88,20.66c0,8.95,2.24,15.84,6.71,20.65c4.48,4.82,10.12,7.23,16.92,7.23
		C1004.28,157.91,1008.33,156.86,1012.13,154.77z"/>
	<path class="st0" d="M1083.95,172.62c-7.25-4.02-12.95-9.72-17.08-17.08c-4.14-7.37-6.21-15.87-6.21-25.5
		c0-9.63,2.12-18.13,6.38-25.5c4.25-7.37,10.06-13.06,17.42-17.08c7.37-4.02,15.58-6.04,24.65-6.04c9.07,0,17.28,2.01,24.65,6.04
		c7.37,4.02,13.17,9.72,17.42,17.08c4.25,7.37,6.38,15.87,6.38,25.5c0,9.63-2.18,18.13-6.54,25.5
		c-4.36,7.37-10.26,13.06-17.68,17.08c-7.42,4.02-15.72,6.03-24.91,6.03C1099.36,178.65,1091.2,176.64,1083.95,172.62z
		 M1120.58,154.77c3.8-2.1,6.83-5.24,9.09-9.44c2.27-4.19,3.4-9.29,3.4-15.3c0-8.95-2.35-15.84-7.06-20.66
		c-4.7-4.82-10.45-7.23-17.25-7.23c-6.8,0-12.5,2.41-17.08,7.23c-4.59,4.82-6.88,11.7-6.88,20.66c0,8.95,2.24,15.84,6.71,20.65
		c4.48,4.82,10.12,7.23,16.92,7.23C1112.73,157.91,1116.78,156.86,1120.58,154.77z"/>
	<path class="st0" d="M1230.83,177.12L1198.87,137v40.12h-23.8V51.32h23.8v71.57l31.62-39.95h30.94l-41.48,47.26l41.82,46.92
		H1230.83z"/>
	<path class="st0" d="M1274.26,174.32c-2.78-2.66-4.16-5.98-4.16-9.95c0-3.97,1.39-7.28,4.16-9.94c2.78-2.66,6.32-4,10.62-4
		c4.19,0,7.65,1.33,10.37,4c2.72,2.66,4.08,5.98,4.08,9.94c0,3.97-1.36,7.28-4.08,9.95c-2.72,2.66-6.18,3.99-10.37,3.99
		C1280.58,178.31,1277.04,176.98,1274.26,174.32z"/>
</g>
</svg>
